<svg width="56" height="35" viewBox="0 0 56 35" fill="none" xmlns="http://www.w3.org/2000/svg">
<path d="M50.251 14.8934C50.2328 13.2586 50.2268 11.6118 50.2207 9.97093H45.3285C45.3104 11.6057 45.2983 13.2465 45.2862 14.8934C43.6393 14.8994 42.0045 14.9116 40.3697 14.9297V19.828C42.0045 19.8461 43.6514 19.8582 45.2862 19.8764C45.3043 21.5112 45.3043 23.152 45.3164 24.7868H50.2147C50.2207 23.152 50.2328 21.5112 50.2449 19.8643C51.8918 19.8461 53.5266 19.8401 55.1613 19.8219V14.9237C53.5326 14.9116 51.8858 14.9116 50.251 14.8934ZM18.1612 14.9176C18.1551 16.8733 18.1612 18.835 18.1672 20.7907C21.4488 20.8996 24.7365 20.8512 28.0182 20.8996C26.5711 28.1834 16.6717 30.5448 11.4344 25.7858C6.04572 21.6141 6.30002 12.4655 11.9006 8.59046C15.818 5.46624 21.3822 6.23519 25.2996 8.94163C26.8375 7.51878 28.2785 5.993 29.6651 4.41878C26.4076 1.82132 22.4115 -0.0314138 18.1612 0.162336C9.28498 -0.134344 1.12932 7.63987 0.984005 16.5221C0.414865 23.7817 5.18596 30.8959 11.9188 33.4631C18.6274 36.0485 27.2311 34.2866 31.5178 28.2561C34.3453 24.4477 34.9569 19.5434 34.6239 14.9358C29.1322 14.8934 23.6467 14.8994 18.1612 14.9176Z" fill="black" fill-opacity="0.21"/>
</svg>
