<svg width="28" height="29" viewBox="0 0 28 29" fill="none" xmlns="http://www.w3.org/2000/svg">
<path d="M6.268 28.4121H0.463V9.71811H6.268V28.4121ZM3.362 7.16811C1.506 7.16811 0 5.63011 0 3.77411C0 2.88245 0.35421 2.02731 0.984707 1.39682C1.6152 0.766319 2.47034 0.412109 3.362 0.412109C4.25366 0.412109 5.1088 0.766319 5.73929 1.39682C6.36979 2.02731 6.724 2.88245 6.724 3.77411C6.724 5.63011 5.218 7.16811 3.362 7.16811ZM27.994 28.4121H22.202V19.3121C22.202 17.1431 22.158 14.3621 19.184 14.3621C16.166 14.3621 15.703 16.7181 15.703 19.1561V28.4121H9.904V9.71811H15.471V12.2681H15.552C16.327 10.7991 18.22 9.24911 21.044 9.24911C26.919 9.24911 27.999 13.1181 27.999 18.1431V28.4121H27.994Z" fill="black" fill-opacity="0.21"/>
</svg>
