<svg width="22" height="18" viewBox="0 0 22 18" fill="none" xmlns="http://www.w3.org/2000/svg">
<path d="M21.9401 2.1173C21.1333 2.46534 20.2553 2.71583 19.3509 2.81339C20.2898 2.25555 20.993 1.37427 21.3284 0.334874C20.4473 0.859025 19.4821 1.22657 18.4755 1.4212C18.0548 0.971448 17.546 0.613153 16.9807 0.368644C16.4155 0.124135 15.806 -0.00134943 15.1901 1.09434e-05C12.6984 1.09434e-05 10.6945 2.01974 10.6945 4.49825C10.6945 4.8463 10.7367 5.19435 10.8053 5.52921C7.07432 5.33409 3.74678 3.55167 1.53457 0.822667C1.13148 1.51116 0.920251 2.29508 0.922851 3.09288C0.922851 4.65382 1.7165 6.03019 2.92676 6.83966C2.21354 6.81157 1.51702 6.61553 0.893848 6.26749V6.32286C0.893848 8.5087 2.43897 10.3201 4.49824 10.7367C4.11159 10.8372 3.71384 10.8885 3.31436 10.8897C3.02168 10.8897 2.74482 10.8607 2.46533 10.8211C3.03486 12.6035 4.69336 13.8982 6.66826 13.9403C5.12314 15.1506 3.18779 15.8625 1.08633 15.8625C0.709277 15.8625 0.36123 15.8493 0 15.8071C1.99336 17.0859 4.3585 17.8242 6.90557 17.8242C15.1743 17.8242 19.6989 10.974 19.6989 5.02823C19.6989 4.83312 19.6989 4.638 19.6857 4.44288C20.5611 3.80216 21.3284 3.00851 21.9401 2.1173Z" fill="black" fill-opacity="0.21"/>
</svg>
